<svg width="70" height="70" viewBox="0 0 70 70" fill="none" xmlns="http://www.w3.org/2000/svg">
<path d="M34.7 0C15.6 0 0 15.6 0 34.7C0 53.8 15.6 69.4 34.7 69.4C53.8 69.4 69.4 53.8 69.4 34.7C69.4 15.6 53.8 0 34.7 0ZM34.7 67.4C16.7 67.4 2 52.7 2 34.7C2 16.7 16.7 2 34.7 2C52.7 2 67.4 16.7 67.4 34.7C67.4 52.7 52.7 67.4 34.7 67.4Z" fill="#FDE047"/>
<path d="M47 26.8C49.4301 26.8 51.4 24.8301 51.4 22.4C51.4 19.9699 49.4301 18 47 18C44.57 18 42.6 19.9699 42.6 22.4C42.6 24.8301 44.57 26.8 47 26.8Z" fill="#FDE047"/>
<path d="M22.1 26.8C24.5301 26.8 26.5 24.8301 26.5 22.4C26.5 19.9699 24.5301 18 22.1 18C19.67 18 17.7 19.9699 17.7 22.4C17.7 24.8301 19.67 26.8 22.1 26.8Z" fill="#FDE047"/>
<path d="M52.7 35.8C52.1 35.8 51.7 36.2 51.7 36.8C51.7 46.2 44.1 53.8 34.7 53.8C25.3 53.8 17.7 46.2 17.7 36.8C17.7 36.2 17.3 35.8 16.7 35.8C16.1 35.8 15.7 36.2 15.7 36.8C15.7 47.3 24.2 55.8 34.7 55.8C45.2 55.8 53.7 47.3 53.7 36.8C53.7 36.2 53.3 35.8 52.7 35.8Z" fill="#FDE047"/>
</svg>
